<mxfile host="Electron" agent="Mozilla/5.0 (Windows NT 10.0; Win64; x64) AppleWebKit/537.36 (KHTML, like Gecko) draw.io/27.0.9 Chrome/134.0.6998.205 Electron/35.4.0 Safari/537.36" version="27.0.9">
  <diagram name="페이지-1" id="5GR2L7mvFauvSHwv0f9n">
    <mxGraphModel dx="3778" dy="2885" grid="0" gridSize="10" guides="1" tooltips="1" connect="1" arrows="1" fold="1" page="1" pageScale="1" pageWidth="827" pageHeight="1169" math="0" shadow="0">
      <root>
        <mxCell id="0" />
        <mxCell id="1" parent="0" />
        <mxCell id="LCYZ4hNQgIS06hEwQOR3-38" value="" style="rounded=0;whiteSpace=wrap;html=1;" parent="1" vertex="1">
          <mxGeometry x="-180" y="30" width="910" height="1110" as="geometry" />
        </mxCell>
        <mxCell id="LCYZ4hNQgIS06hEwQOR3-2" value="ROM&lt;div&gt;(Instruction Mem)&lt;/div&gt;" style="rounded=0;whiteSpace=wrap;html=1;fontStyle=1;fontSize=31;" parent="1" vertex="1">
          <mxGeometry x="-620" y="300" width="240" height="700" as="geometry" />
        </mxCell>
        <mxCell id="LCYZ4hNQgIS06hEwQOR3-3" value="" style="rounded=0;whiteSpace=wrap;html=1;" parent="1" vertex="1">
          <mxGeometry x="50" y="300" width="280" height="380" as="geometry" />
        </mxCell>
        <mxCell id="LCYZ4hNQgIS06hEwQOR3-4" value="" style="shape=table;startSize=0;container=1;collapsible=0;childLayout=tableLayout;" parent="1" vertex="1">
          <mxGeometry x="120" y="400" width="140" height="250" as="geometry" />
        </mxCell>
        <mxCell id="LCYZ4hNQgIS06hEwQOR3-5" value="" style="shape=tableRow;horizontal=0;startSize=0;swimlaneHead=0;swimlaneBody=0;strokeColor=inherit;top=0;left=0;bottom=0;right=0;collapsible=0;dropTarget=0;fillColor=none;points=[[0,0.5],[1,0.5]];portConstraint=eastwest;" parent="LCYZ4hNQgIS06hEwQOR3-4" vertex="1">
          <mxGeometry width="140" height="50" as="geometry" />
        </mxCell>
        <mxCell id="LCYZ4hNQgIS06hEwQOR3-6" value="R31" style="shape=partialRectangle;html=1;whiteSpace=wrap;connectable=0;strokeColor=inherit;overflow=hidden;fillColor=none;top=0;left=0;bottom=0;right=0;pointerEvents=1;" parent="LCYZ4hNQgIS06hEwQOR3-5" vertex="1">
          <mxGeometry width="140" height="50" as="geometry">
            <mxRectangle width="140" height="50" as="alternateBounds" />
          </mxGeometry>
        </mxCell>
        <mxCell id="LCYZ4hNQgIS06hEwQOR3-7" value="" style="shape=tableRow;horizontal=0;startSize=0;swimlaneHead=0;swimlaneBody=0;strokeColor=inherit;top=0;left=0;bottom=0;right=0;collapsible=0;dropTarget=0;fillColor=none;points=[[0,0.5],[1,0.5]];portConstraint=eastwest;" parent="LCYZ4hNQgIS06hEwQOR3-4" vertex="1">
          <mxGeometry y="50" width="140" height="50" as="geometry" />
        </mxCell>
        <mxCell id="LCYZ4hNQgIS06hEwQOR3-8" value="R30" style="shape=partialRectangle;html=1;whiteSpace=wrap;connectable=0;strokeColor=inherit;overflow=hidden;fillColor=none;top=0;left=0;bottom=0;right=0;pointerEvents=1;" parent="LCYZ4hNQgIS06hEwQOR3-7" vertex="1">
          <mxGeometry width="140" height="50" as="geometry">
            <mxRectangle width="140" height="50" as="alternateBounds" />
          </mxGeometry>
        </mxCell>
        <mxCell id="LCYZ4hNQgIS06hEwQOR3-9" value="" style="shape=tableRow;horizontal=0;startSize=0;swimlaneHead=0;swimlaneBody=0;strokeColor=inherit;top=0;left=0;bottom=0;right=0;collapsible=0;dropTarget=0;fillColor=none;points=[[0,0.5],[1,0.5]];portConstraint=eastwest;" parent="LCYZ4hNQgIS06hEwQOR3-4" vertex="1">
          <mxGeometry y="100" width="140" height="50" as="geometry" />
        </mxCell>
        <mxCell id="LCYZ4hNQgIS06hEwQOR3-10" value="..." style="shape=partialRectangle;html=1;whiteSpace=wrap;connectable=0;strokeColor=inherit;overflow=hidden;fillColor=none;top=0;left=0;bottom=0;right=0;pointerEvents=1;" parent="LCYZ4hNQgIS06hEwQOR3-9" vertex="1">
          <mxGeometry width="140" height="50" as="geometry">
            <mxRectangle width="140" height="50" as="alternateBounds" />
          </mxGeometry>
        </mxCell>
        <mxCell id="LCYZ4hNQgIS06hEwQOR3-11" value="" style="shape=tableRow;horizontal=0;startSize=0;swimlaneHead=0;swimlaneBody=0;strokeColor=inherit;top=0;left=0;bottom=0;right=0;collapsible=0;dropTarget=0;fillColor=none;points=[[0,0.5],[1,0.5]];portConstraint=eastwest;" parent="LCYZ4hNQgIS06hEwQOR3-4" vertex="1">
          <mxGeometry y="150" width="140" height="50" as="geometry" />
        </mxCell>
        <mxCell id="LCYZ4hNQgIS06hEwQOR3-12" value="R1" style="shape=partialRectangle;html=1;whiteSpace=wrap;connectable=0;strokeColor=inherit;overflow=hidden;fillColor=none;top=0;left=0;bottom=0;right=0;pointerEvents=1;" parent="LCYZ4hNQgIS06hEwQOR3-11" vertex="1">
          <mxGeometry width="140" height="50" as="geometry">
            <mxRectangle width="140" height="50" as="alternateBounds" />
          </mxGeometry>
        </mxCell>
        <mxCell id="LCYZ4hNQgIS06hEwQOR3-13" value="" style="shape=tableRow;horizontal=0;startSize=0;swimlaneHead=0;swimlaneBody=0;strokeColor=inherit;top=0;left=0;bottom=0;right=0;collapsible=0;dropTarget=0;fillColor=none;points=[[0,0.5],[1,0.5]];portConstraint=eastwest;" parent="LCYZ4hNQgIS06hEwQOR3-4" vertex="1">
          <mxGeometry y="200" width="140" height="50" as="geometry" />
        </mxCell>
        <mxCell id="LCYZ4hNQgIS06hEwQOR3-14" value="R0(==0 Fix)" style="shape=partialRectangle;html=1;whiteSpace=wrap;connectable=0;strokeColor=inherit;overflow=hidden;fillColor=none;top=0;left=0;bottom=0;right=0;pointerEvents=1;" parent="LCYZ4hNQgIS06hEwQOR3-13" vertex="1">
          <mxGeometry width="140" height="50" as="geometry">
            <mxRectangle width="140" height="50" as="alternateBounds" />
          </mxGeometry>
        </mxCell>
        <mxCell id="LCYZ4hNQgIS06hEwQOR3-15" value="&lt;font style=&quot;font-size: 26px;&quot;&gt;ALU&lt;/font&gt;" style="shape=step;perimeter=stepPerimeter;whiteSpace=wrap;html=1;fixedSize=1;fontStyle=1;fontSize=15;" parent="1" vertex="1">
          <mxGeometry x="430" y="390" width="120" height="200" as="geometry" />
        </mxCell>
        <mxCell id="LCYZ4hNQgIS06hEwQOR3-16" value="" style="endArrow=classic;html=1;rounded=0;entryX=0.083;entryY=0.245;entryDx=0;entryDy=0;entryPerimeter=0;" parent="1" target="LCYZ4hNQgIS06hEwQOR3-15" edge="1">
          <mxGeometry width="50" height="50" relative="1" as="geometry">
            <mxPoint x="330" y="440" as="sourcePoint" />
            <mxPoint x="380" y="390" as="targetPoint" />
          </mxGeometry>
        </mxCell>
        <mxCell id="LCYZ4hNQgIS06hEwQOR3-17" value="" style="endArrow=classic;html=1;rounded=0;entryX=0.033;entryY=0.85;entryDx=0;entryDy=0;entryPerimeter=0;" parent="1" target="LCYZ4hNQgIS06hEwQOR3-15" edge="1">
          <mxGeometry width="50" height="50" relative="1" as="geometry">
            <mxPoint x="330" y="560" as="sourcePoint" />
            <mxPoint x="380" y="510" as="targetPoint" />
          </mxGeometry>
        </mxCell>
        <mxCell id="LCYZ4hNQgIS06hEwQOR3-18" value="RD1" style="text;html=1;align=center;verticalAlign=middle;whiteSpace=wrap;rounded=0;" parent="1" vertex="1">
          <mxGeometry x="270" y="430" width="60" height="30" as="geometry" />
        </mxCell>
        <mxCell id="LCYZ4hNQgIS06hEwQOR3-19" value="RD2" style="text;html=1;align=center;verticalAlign=middle;whiteSpace=wrap;rounded=0;" parent="1" vertex="1">
          <mxGeometry x="270" y="550" width="60" height="30" as="geometry" />
        </mxCell>
        <mxCell id="LCYZ4hNQgIS06hEwQOR3-20" value="Register File" style="text;html=1;align=center;verticalAlign=middle;whiteSpace=wrap;rounded=0;fontStyle=1;fontSize=27;" parent="1" vertex="1">
          <mxGeometry x="135" y="333" width="110" height="30" as="geometry" />
        </mxCell>
        <mxCell id="LCYZ4hNQgIS06hEwQOR3-21" value="Control Unit" style="rounded=0;whiteSpace=wrap;html=1;fontStyle=1;fontSize=31;" parent="1" vertex="1">
          <mxGeometry x="-150" y="60" width="810" height="170" as="geometry" />
        </mxCell>
        <mxCell id="LCYZ4hNQgIS06hEwQOR3-23" style="edgeStyle=orthogonalEdgeStyle;rounded=0;orthogonalLoop=1;jettySize=auto;html=1;entryX=-0.007;entryY=0.847;entryDx=0;entryDy=0;entryPerimeter=0;" parent="1" source="LCYZ4hNQgIS06hEwQOR3-15" target="LCYZ4hNQgIS06hEwQOR3-3" edge="1">
          <mxGeometry relative="1" as="geometry">
            <Array as="points">
              <mxPoint x="690" y="490" />
              <mxPoint x="690" y="830" />
              <mxPoint x="-70" y="830" />
              <mxPoint x="-70" y="622" />
            </Array>
          </mxGeometry>
        </mxCell>
        <mxCell id="LCYZ4hNQgIS06hEwQOR3-24" value="WD" style="text;html=1;align=center;verticalAlign=middle;whiteSpace=wrap;rounded=0;" parent="1" vertex="1">
          <mxGeometry x="40" y="610" width="60" height="30" as="geometry" />
        </mxCell>
        <mxCell id="LCYZ4hNQgIS06hEwQOR3-25" value="RF_&lt;span style=&quot;color: rgba(0, 0, 0, 0); font-family: monospace; font-size: 0px; text-align: start; text-wrap-mode: nowrap;&quot;&gt;%3CmxGraphModel%3E%3Croot%3E%3CmxCell%20id%3D%220%22%2F%3E%3CmxCell%20id%3D%221%22%20parent%3D%220%22%2F%3E%3CmxCell%20id%3D%222%22%20value%3D%22WD%22%20style%3D%22text%3Bhtml%3D1%3Balign%3Dcenter%3BverticalAlign%3Dmiddle%3BwhiteSpace%3Dwrap%3Brounded%3D0%3B%22%20vertex%3D%221%22%20parent%3D%221%22%3E%3CmxGeometry%20x%3D%2240%22%20y%3D%22610%22%20width%3D%2260%22%20height%3D%2230%22%20as%3D%22geometry%22%2F%3E%3C%2FmxCell%3E%3C%2Froot%3E%3C%2FmxGraphModel%3E&lt;/span&gt;WE" style="text;html=1;align=center;verticalAlign=middle;whiteSpace=wrap;rounded=0;" parent="1" vertex="1">
          <mxGeometry x="50" y="320" width="60" height="30" as="geometry" />
        </mxCell>
        <mxCell id="LCYZ4hNQgIS06hEwQOR3-27" style="edgeStyle=orthogonalEdgeStyle;rounded=0;orthogonalLoop=1;jettySize=auto;html=1;entryX=0;entryY=0.5;entryDx=0;entryDy=0;" parent="1" source="LCYZ4hNQgIS06hEwQOR3-26" target="LCYZ4hNQgIS06hEwQOR3-25" edge="1">
          <mxGeometry relative="1" as="geometry" />
        </mxCell>
        <mxCell id="LCYZ4hNQgIS06hEwQOR3-26" value="RF_&lt;span style=&quot;color: rgba(0, 0, 0, 0); font-family: monospace; font-size: 0px; text-align: start; text-wrap-mode: nowrap;&quot;&gt;%3CmxGraphModel%3E%3Croot%3E%3CmxCell%20id%3D%220%22%2F%3E%3CmxCell%20id%3D%221%22%20parent%3D%220%22%2F%3E%3CmxCell%20id%3D%222%22%20value%3D%22WD%22%20style%3D%22text%3Bhtml%3D1%3Balign%3Dcenter%3BverticalAlign%3Dmiddle%3BwhiteSpace%3Dwrap%3Brounded%3D0%3B%22%20vertex%3D%221%22%20parent%3D%221%22%3E%3CmxGeometry%20x%3D%2240%22%20y%3D%22610%22%20width%3D%2260%22%20height%3D%2230%22%20as%3D%22geometry%22%2F%3E%3C%2FmxCell%3E%3C%2Froot%3E%3C%2FmxGraphModel%3E&lt;/span&gt;WE" style="text;html=1;align=center;verticalAlign=middle;whiteSpace=wrap;rounded=0;" parent="1" vertex="1">
          <mxGeometry x="40" y="200" width="60" height="30" as="geometry" />
        </mxCell>
        <mxCell id="LCYZ4hNQgIS06hEwQOR3-28" value="&lt;font style=&quot;font-size: 31px;&quot;&gt;PC&lt;/font&gt;" style="rounded=0;whiteSpace=wrap;html=1;fontStyle=1;fontSize=15;" parent="1" vertex="1">
          <mxGeometry x="130" y="910" width="120" height="60" as="geometry" />
        </mxCell>
        <mxCell id="LCYZ4hNQgIS06hEwQOR3-30" style="edgeStyle=orthogonalEdgeStyle;rounded=0;orthogonalLoop=1;jettySize=auto;html=1;exitX=1;exitY=0.5;exitDx=0;exitDy=0;entryX=1;entryY=0.5;entryDx=0;entryDy=0;" parent="1" source="LCYZ4hNQgIS06hEwQOR3-29" target="LCYZ4hNQgIS06hEwQOR3-28" edge="1">
          <mxGeometry relative="1" as="geometry" />
        </mxCell>
        <mxCell id="LCYZ4hNQgIS06hEwQOR3-29" value="&lt;font style=&quot;font-size: 26px;&quot;&gt;+&lt;/font&gt;" style="shape=step;perimeter=stepPerimeter;whiteSpace=wrap;html=1;fixedSize=1;rotation=-180;" parent="1" vertex="1">
          <mxGeometry x="360" y="885" width="60" height="110" as="geometry" />
        </mxCell>
        <mxCell id="LCYZ4hNQgIS06hEwQOR3-31" style="edgeStyle=orthogonalEdgeStyle;rounded=0;orthogonalLoop=1;jettySize=auto;html=1;exitX=0.5;exitY=1;exitDx=0;exitDy=0;entryX=0.1;entryY=0.2;entryDx=0;entryDy=0;entryPerimeter=0;" parent="1" source="LCYZ4hNQgIS06hEwQOR3-28" target="LCYZ4hNQgIS06hEwQOR3-29" edge="1">
          <mxGeometry relative="1" as="geometry">
            <Array as="points">
              <mxPoint x="190" y="1070" />
              <mxPoint x="510" y="1070" />
              <mxPoint x="510" y="973" />
            </Array>
          </mxGeometry>
        </mxCell>
        <mxCell id="LCYZ4hNQgIS06hEwQOR3-32" value="" style="endArrow=classic;html=1;rounded=0;entryX=0.1;entryY=0.818;entryDx=0;entryDy=0;entryPerimeter=0;" parent="1" target="LCYZ4hNQgIS06hEwQOR3-29" edge="1">
          <mxGeometry width="50" height="50" relative="1" as="geometry">
            <mxPoint x="510" y="905" as="sourcePoint" />
            <mxPoint x="540" y="850" as="targetPoint" />
          </mxGeometry>
        </mxCell>
        <mxCell id="LCYZ4hNQgIS06hEwQOR3-34" value="32&#39;d4" style="rounded=1;whiteSpace=wrap;html=1;fontSize=19;" parent="1" vertex="1">
          <mxGeometry x="510" y="870" width="70" height="60" as="geometry" />
        </mxCell>
        <mxCell id="LCYZ4hNQgIS06hEwQOR3-35" value="addr" style="text;html=1;align=center;verticalAlign=middle;whiteSpace=wrap;rounded=0;fontSize=19;" parent="1" vertex="1">
          <mxGeometry x="-440" y="920" width="60" height="30" as="geometry" />
        </mxCell>
        <mxCell id="LCYZ4hNQgIS06hEwQOR3-36" style="edgeStyle=orthogonalEdgeStyle;rounded=0;orthogonalLoop=1;jettySize=auto;html=1;exitX=0;exitY=0.5;exitDx=0;exitDy=0;entryX=1;entryY=0.914;entryDx=0;entryDy=0;entryPerimeter=0;" parent="1" source="LCYZ4hNQgIS06hEwQOR3-28" target="LCYZ4hNQgIS06hEwQOR3-2" edge="1">
          <mxGeometry relative="1" as="geometry" />
        </mxCell>
        <mxCell id="LCYZ4hNQgIS06hEwQOR3-39" value="CPU" style="text;html=1;align=center;verticalAlign=middle;whiteSpace=wrap;rounded=0;fontStyle=1;fontSize=31;" parent="1" vertex="1">
          <mxGeometry x="142.5" y="-30" width="225" height="30" as="geometry" />
        </mxCell>
        <mxCell id="LCYZ4hNQgIS06hEwQOR3-40" value="instr_Code" style="text;html=1;align=center;verticalAlign=middle;whiteSpace=wrap;rounded=0;fontSize=19;" parent="1" vertex="1">
          <mxGeometry x="-457" y="475" width="60" height="30" as="geometry" />
        </mxCell>
        <mxCell id="LCYZ4hNQgIS06hEwQOR3-41" style="edgeStyle=orthogonalEdgeStyle;rounded=0;orthogonalLoop=1;jettySize=auto;html=1;entryX=0.001;entryY=0.415;entryDx=0;entryDy=0;entryPerimeter=0;" parent="1" source="LCYZ4hNQgIS06hEwQOR3-44" target="LCYZ4hNQgIS06hEwQOR3-38" edge="1">
          <mxGeometry relative="1" as="geometry" />
        </mxCell>
        <mxCell id="LCYZ4hNQgIS06hEwQOR3-42" value="" style="endArrow=classic;html=1;rounded=0;entryX=0;entryY=0.5;entryDx=0;entryDy=0;" parent="1" source="LCYZ4hNQgIS06hEwQOR3-51" target="LCYZ4hNQgIS06hEwQOR3-3" edge="1">
          <mxGeometry width="50" height="50" relative="1" as="geometry">
            <mxPoint x="-180" y="490" as="sourcePoint" />
            <mxPoint x="-130" y="440" as="targetPoint" />
          </mxGeometry>
        </mxCell>
        <mxCell id="LCYZ4hNQgIS06hEwQOR3-43" value="" style="edgeStyle=orthogonalEdgeStyle;rounded=0;orthogonalLoop=1;jettySize=auto;html=1;entryDx=0;entryDy=0;entryPerimeter=0;" parent="1" source="LCYZ4hNQgIS06hEwQOR3-40" target="LCYZ4hNQgIS06hEwQOR3-44" edge="1">
          <mxGeometry relative="1" as="geometry">
            <mxPoint x="-383" y="490" as="sourcePoint" />
            <mxPoint x="-179" y="491" as="targetPoint" />
          </mxGeometry>
        </mxCell>
        <mxCell id="LCYZ4hNQgIS06hEwQOR3-45" style="edgeStyle=orthogonalEdgeStyle;rounded=0;orthogonalLoop=1;jettySize=auto;html=1;entryX=0;entryY=0.5;entryDx=0;entryDy=0;" parent="1" source="LCYZ4hNQgIS06hEwQOR3-44" target="LCYZ4hNQgIS06hEwQOR3-21" edge="1">
          <mxGeometry relative="1" as="geometry">
            <Array as="points">
              <mxPoint x="-280" y="145" />
            </Array>
          </mxGeometry>
        </mxCell>
        <mxCell id="LCYZ4hNQgIS06hEwQOR3-44" value="" style="shape=waypoint;sketch=0;fillStyle=solid;size=6;pointerEvents=1;points=[];fillColor=none;resizable=0;rotatable=0;perimeter=centerPerimeter;snapToPoint=1;" parent="1" vertex="1">
          <mxGeometry x="-290" y="480" width="20" height="20" as="geometry" />
        </mxCell>
        <mxCell id="LCYZ4hNQgIS06hEwQOR3-46" value="R_ADDR1" style="text;html=1;align=center;verticalAlign=middle;whiteSpace=wrap;rounded=0;" parent="1" vertex="1">
          <mxGeometry x="50" y="475" width="60" height="30" as="geometry" />
        </mxCell>
        <mxCell id="LCYZ4hNQgIS06hEwQOR3-47" value="R_ADDR2" style="text;html=1;align=center;verticalAlign=middle;whiteSpace=wrap;rounded=0;" parent="1" vertex="1">
          <mxGeometry x="50" y="520" width="60" height="30" as="geometry" />
        </mxCell>
        <mxCell id="LCYZ4hNQgIS06hEwQOR3-50" value="" style="endArrow=classic;html=1;rounded=0;entryDx=0;entryDy=0;" parent="1" target="LCYZ4hNQgIS06hEwQOR3-51" edge="1">
          <mxGeometry width="50" height="50" relative="1" as="geometry">
            <mxPoint x="-180" y="490" as="sourcePoint" />
            <mxPoint x="50" y="490" as="targetPoint" />
          </mxGeometry>
        </mxCell>
        <mxCell id="LCYZ4hNQgIS06hEwQOR3-52" style="edgeStyle=orthogonalEdgeStyle;rounded=0;orthogonalLoop=1;jettySize=auto;html=1;entryX=0;entryY=0.5;entryDx=0;entryDy=0;" parent="1" source="LCYZ4hNQgIS06hEwQOR3-57" target="LCYZ4hNQgIS06hEwQOR3-47" edge="1">
          <mxGeometry relative="1" as="geometry">
            <Array as="points">
              <mxPoint x="-60" y="535" />
            </Array>
          </mxGeometry>
        </mxCell>
        <mxCell id="LCYZ4hNQgIS06hEwQOR3-51" value="" style="shape=waypoint;sketch=0;fillStyle=solid;size=6;pointerEvents=1;points=[];fillColor=none;resizable=0;rotatable=0;perimeter=centerPerimeter;snapToPoint=1;" parent="1" vertex="1">
          <mxGeometry x="-70" y="480" width="20" height="20" as="geometry" />
        </mxCell>
        <mxCell id="LCYZ4hNQgIS06hEwQOR3-53" value="W_ADDR" style="text;html=1;align=center;verticalAlign=middle;whiteSpace=wrap;rounded=0;" parent="1" vertex="1">
          <mxGeometry x="50" y="569.5" width="60" height="30" as="geometry" />
        </mxCell>
        <mxCell id="LCYZ4hNQgIS06hEwQOR3-56" value="" style="edgeStyle=orthogonalEdgeStyle;rounded=0;orthogonalLoop=1;jettySize=auto;html=1;entryDx=0;entryDy=0;" parent="1" source="LCYZ4hNQgIS06hEwQOR3-51" target="LCYZ4hNQgIS06hEwQOR3-57" edge="1">
          <mxGeometry relative="1" as="geometry">
            <mxPoint x="-60" y="490" as="sourcePoint" />
            <mxPoint x="50" y="535" as="targetPoint" />
            <Array as="points" />
          </mxGeometry>
        </mxCell>
        <mxCell id="LCYZ4hNQgIS06hEwQOR3-58" style="edgeStyle=orthogonalEdgeStyle;rounded=0;orthogonalLoop=1;jettySize=auto;html=1;entryX=0;entryY=0.5;entryDx=0;entryDy=0;" parent="1" source="LCYZ4hNQgIS06hEwQOR3-57" target="LCYZ4hNQgIS06hEwQOR3-53" edge="1">
          <mxGeometry relative="1" as="geometry">
            <Array as="points">
              <mxPoint x="-60" y="584" />
            </Array>
          </mxGeometry>
        </mxCell>
        <mxCell id="LCYZ4hNQgIS06hEwQOR3-57" value="" style="shape=waypoint;sketch=0;fillStyle=solid;size=6;pointerEvents=1;points=[];fillColor=none;resizable=0;rotatable=0;perimeter=centerPerimeter;snapToPoint=1;" parent="1" vertex="1">
          <mxGeometry x="-70" y="520" width="20" height="20" as="geometry" />
        </mxCell>
        <mxCell id="hHvR9LQ6iCno9mDcRgYA-2" style="edgeStyle=orthogonalEdgeStyle;rounded=0;orthogonalLoop=1;jettySize=auto;html=1;entryX=0.5;entryY=0;entryDx=0;entryDy=0;" parent="1" source="hHvR9LQ6iCno9mDcRgYA-1" target="LCYZ4hNQgIS06hEwQOR3-15" edge="1">
          <mxGeometry relative="1" as="geometry" />
        </mxCell>
        <mxCell id="hHvR9LQ6iCno9mDcRgYA-1" value="ALUControl" style="text;html=1;align=center;verticalAlign=middle;whiteSpace=wrap;rounded=0;" parent="1" vertex="1">
          <mxGeometry x="435" y="200" width="110" height="30" as="geometry" />
        </mxCell>
      </root>
    </mxGraphModel>
  </diagram>
</mxfile>
